<svg width="401" height="509" viewBox="0 0 401 509" fill="none" xmlns="http://www.w3.org/2000/svg">
<path d="M265.698 272.147C263.731 262.606 255.331 255.761 245.59 255.761H155.86C146.12 255.761 137.72 262.606 135.752 272.147L116.034 367.756H0.545898L138.64 0.287354H262.449L400.544 367.756H285.417L265.698 272.147ZM200.725 229.151C233.325 229.151 259.753 202.72 259.753 170.115V164.982C248.053 151.334 240.774 134.454 238.882 116.576L236.655 95.5385H164.796L162.751 114.85C160.751 133.745 152.428 151.411 139.132 164.982V167.548C139.132 201.57 166.708 229.151 200.725 229.151Z" fill="#101010"/>
<path d="M146.363 284.138C148.119 274.353 156.632 267.231 166.571 267.231H235.302C245.053 267.231 253.458 274.09 255.415 283.644L266.974 340.078H241.788L236.655 315.383H164.796L159.663 340.078H266.974L282.607 434.85C285.965 455.205 279.059 476.237 261.593 487.214C245.14 497.555 222.932 508.086 200.725 508.086C200.725 508.086 200.725 486.868 200.725 479.852C207.028 479.852 214.477 478.163 221.978 475.707C247.205 467.448 258.548 439.653 252.961 413.699L246.921 385.635H154.53L147.866 416.593C142.587 441.121 152.467 467.555 176.297 475.398C184.265 478.02 192.703 479.852 200.725 479.852C200.725 486.868 200.725 508.086 200.725 508.086C178.733 508.086 156.741 497.758 140.337 487.514C122.579 476.425 115.702 454.986 119.401 434.377L146.363 284.138Z" fill="#101010"/>
</svg>
